HIERARCHY
ROOT pelvis
{
	OFFSET 0.003123 -0.012037 -0.351407
	CHANNELS 6 Xposition Yposition Zposition Zrotation Yrotation Xrotation 
	JOINT left_hip
	{
		OFFSET 0.058189 0.026001 -0.092763
		CHANNELS 3 Zrotation Yrotation Xrotation
		JOINT left_knee
		{
			OFFSET 0.054695 0.009396 -0.378753
			CHANNELS 3 Zrotation Yrotation Xrotation
			JOINT left_ankle
			{
				OFFSET -0.043453 0.031876 -0.403060
				CHANNELS 3 Zrotation Yrotation Xrotation
				JOINT left_foot
				{
					OFFSET 0.047257 -0.118216 -0.057997
					CHANNELS 3 Zrotation Yrotation Xrotation
					End Site
					{
						OFFSET 0.000000 0.000000 0.000000
					}
				}
			}
		}
	}
	JOINT right_hip
	{
		OFFSET -0.063267 0.021250 -0.103908
		CHANNELS 3 Zrotation Yrotation Xrotation
		JOINT right_knee
		{
			OFFSET -0.044210 0.016824 -0.362380
			CHANNELS 3 Zrotation Yrotation Xrotation
			JOINT right_ankle
			{
				OFFSET 0.015417 0.020192 -0.410728
				CHANNELS 3 Zrotation Yrotation Xrotation
				JOINT right_foot
				{
					OFFSET -0.038812 -0.119049 -0.058328
					CHANNELS 3 Zrotation Yrotation Xrotation
					End Site
					{
						OFFSET 0.000000 0.000000 0.000000
					}
				}
			}
		}
	}
	JOINT spine1
	{
		OFFSET -0.002763 0.027618 0.109891
		CHANNELS 3 Zrotation Yrotation Xrotation
		JOINT spine2
		{
			OFFSET 0.009448 0.005940 0.131853
			CHANNELS 3 Zrotation Yrotation Xrotation
			JOINT spine3
			{
				OFFSET -0.011330 -0.028447 0.052235
				CHANNELS 3 Zrotation Yrotation Xrotation
				JOINT neck
				{
					OFFSET -0.012164 0.031615 0.165167
					CHANNELS 3 Zrotation Yrotation Xrotation
					JOINT head
					{
						OFFSET 0.024783 -0.020737 0.160452
						CHANNELS 3 Zrotation Yrotation Xrotation
						End Site
						{
							OFFSET 0.000000 0.000000 0.000000
						}
					}
				}
				JOINT left_collar
				{
					OFFSET 0.046364 0.007220 0.084944
					CHANNELS 3 Zrotation Yrotation Xrotation
					JOINT left_shoulder
					{
						OFFSET 0.119239 0.015461 0.057728
						CHANNELS 3 Zrotation Yrotation Xrotation
						JOINT left_elbow
						{
							OFFSET 0.254123 0.042459 -0.072151
							CHANNELS 3 Zrotation Yrotation Xrotation
							JOINT left_wrist
							{
								OFFSET 0.251987 0.002472 0.023221
								CHANNELS 3 Zrotation Yrotation Xrotation
								JOINT left_index1
								{
									OFFSET 0.101902 -0.019351 -0.008688
									CHANNELS 3 Zrotation Yrotation Xrotation
									JOINT left_index2
									{
										OFFSET 0.031949 -0.003010 0.002218
										CHANNELS 3 Zrotation Yrotation Xrotation
										JOINT left_index3
										{
											OFFSET 0.022545 -0.000055 -0.002350
											CHANNELS 3 Zrotation Yrotation Xrotation
											End Site
											{
												OFFSET 0.000000 0.000000 0.000000
											}
										}
									}
								}
								JOINT left_middle1
								{
									OFFSET 0.109398 0.003981 -0.006328
									CHANNELS 3 Zrotation Yrotation Xrotation
									JOINT left_middle2
									{
										OFFSET 0.030611 0.004023 0.000807
										CHANNELS 3 Zrotation Yrotation Xrotation
										JOINT left_middle3
										{
											OFFSET 0.023515 0.004114 -0.002009
											CHANNELS 3 Zrotation Yrotation Xrotation
											End Site
											{
												OFFSET 0.000000 0.000000 0.000000
											}
										}
									}
								}
								JOINT left_pinky1
								{
									OFFSET 0.084047 0.043750 -0.014539
									CHANNELS 3 Zrotation Yrotation Xrotation
									JOINT left_pinky2
									{
										OFFSET 0.015471 0.011999 -0.001132
										CHANNELS 3 Zrotation Yrotation Xrotation
										JOINT left_pinky3
										{
											OFFSET 0.015533 0.011217 -0.001665
											CHANNELS 3 Zrotation Yrotation Xrotation
											End Site
											{
												OFFSET 0.000000 0.000000 0.000000
											}
										}
									}
								}
								JOINT left_ring1
								{
									OFFSET 0.097444 0.027345 -0.009268
									CHANNELS 3 Zrotation Yrotation Xrotation
									JOINT left_ring2
									{
										OFFSET 0.028047 0.005266 0.001485
										CHANNELS 3 Zrotation Yrotation Xrotation
										JOINT left_ring3
										{
											OFFSET 0.022822 0.007094 -0.001458
											CHANNELS 3 Zrotation Yrotation Xrotation
											End Site
											{
												OFFSET 0.000000 0.000000 0.000000
											}
										}
									}
								}
								JOINT left_thumb1
								{
									OFFSET 0.040636 -0.025611 -0.017977
									CHANNELS 3 Zrotation Yrotation Xrotation
									JOINT left_thumb2
									{
										OFFSET 0.017016 -0.024978 0.000976
										CHANNELS 3 Zrotation Yrotation Xrotation
										JOINT left_thumb3
										{
											OFFSET 0.020523 -0.015523 -0.005160
											CHANNELS 3 Zrotation Yrotation Xrotation
											End Site
											{
												OFFSET 0.000000 0.000000 0.000000
											}
										}
									}
								}
							}
						}
					}
				}
				JOINT right_collar
				{
					OFFSET -0.047695 0.013400 0.084339
					CHANNELS 3 Zrotation Yrotation Xrotation
					JOINT right_shoulder
					{
						OFFSET -0.102578 0.012669 0.053524
						CHANNELS 3 Zrotation Yrotation Xrotation
						JOINT right_elbow
						{
							OFFSET -0.271150 0.026467 -0.036492
							CHANNELS 3 Zrotation Yrotation Xrotation
							JOINT right_wrist
							{
								OFFSET -0.249267 0.015325 -0.004533
								CHANNELS 3 Zrotation Yrotation Xrotation
								JOINT right_index1
								{
									OFFSET -0.099880 -0.019600 -0.011783
									CHANNELS 3 Zrotation Yrotation Xrotation
									JOINT right_index2
									{
										OFFSET -0.031948 -0.003011 0.002218
										CHANNELS 3 Zrotation Yrotation Xrotation
										JOINT right_index3
										{
											OFFSET -0.022545 -0.000055 -0.002349
											CHANNELS 3 Zrotation Yrotation Xrotation
											End Site
											{
												OFFSET 0.000000 0.000000 0.000000
											}
										}
									}
								}
								JOINT right_middle1
								{
									OFFSET -0.107376 0.003734 -0.009422
									CHANNELS 3 Zrotation Yrotation Xrotation
									JOINT right_middle2
									{
										OFFSET -0.030611 0.004023 0.000807
										CHANNELS 3 Zrotation Yrotation Xrotation
										JOINT right_middle3
										{
											OFFSET -0.023515 0.004114 -0.002009
											CHANNELS 3 Zrotation Yrotation Xrotation
											End Site
											{
												OFFSET 0.000000 0.000000 0.000000
											}
										}
									}
								}
								JOINT right_pinky1
								{
									OFFSET -0.082027 0.043503 -0.017634
									CHANNELS 3 Zrotation Yrotation Xrotation
									JOINT right_pinky2
									{
										OFFSET -0.015471 0.011999 -0.001132
										CHANNELS 3 Zrotation Yrotation Xrotation
										JOINT right_pinky3
										{
											OFFSET -0.015533 0.011216 -0.001665
											CHANNELS 3 Zrotation Yrotation Xrotation
											End Site
											{
												OFFSET 0.000000 0.000000 0.000000
											}
										}
									}
								}
								JOINT right_ring1
								{
									OFFSET -0.095423 0.027099 -0.012362
									CHANNELS 3 Zrotation Yrotation Xrotation
									JOINT right_ring2
									{
										OFFSET -0.028047 0.005266 0.001485
										CHANNELS 3 Zrotation Yrotation Xrotation
										JOINT right_ring3
										{
											OFFSET -0.022822 0.007093 -0.001459
											CHANNELS 3 Zrotation Yrotation Xrotation
											End Site
											{
												OFFSET 0.000000 0.000000 0.000000
											}
										}
									}
								}
								JOINT right_thumb1
								{
									OFFSET -0.038613 -0.025861 -0.021074
									CHANNELS 3 Zrotation Yrotation Xrotation
									JOINT right_thumb2
									{
										OFFSET -0.017015 -0.024978 0.000976
										CHANNELS 3 Zrotation Yrotation Xrotation
										JOINT right_thumb3
										{
											OFFSET -0.020526 -0.015522 -0.005157
											CHANNELS 3 Zrotation Yrotation Xrotation
											End Site
											{
												OFFSET 0.000000 0.000000 0.000000
											}
										}
									}
								}
							}
						}
					}
				}
			}
		}
	}
}
MOTION
Frames: 4
Frame Time: 0.050000
0.000000 0.986701 0.000000 -4.975463 12.396386 -107.974715 1.658641 -16.019284 0.599476 -9.918067 -13.541078 29.209122 -29.550877 23.588292 5.820914 0.000000 0.000000 0.000000 2.476927 -1.694634 -13.189962 1.605822 4.305477 36.383733 -14.061129 3.561807 26.251294 0.000000 0.000000 0.000000 -4.721436 17.695476 47.565583 -18.517400 -9.091207 -17.315845 132.949714 -16.985472 43.595129 -32.310039 -9.663485 -90.645107 0.000000 0.000000 0.000000 -48.589312 -30.397671 59.106697 -69.887209 -27.249439 -66.332440 -109.391823 1.592572 4.942252 -42.293924 48.152253 81.123246 -12.844300 -48.302325 -42.409312 -3.982565 33.081228 -6.969022 0.000000 0.000000 0.000000 91.698292 28.959727 -46.584844 -20.751588 15.402945 -9.317487 0.000000 0.000000 0.000000 -15.687360 40.549046 -65.777020 -11.135226 -15.589886 5.776932 0.000000 0.000000 0.000000 -125.714905 78.816029 121.055501 -20.389266 -2.816782 -0.549947 0.000000 0.000000 0.000000 126.210882 36.732467 31.612013 -26.649730 -6.636322 -9.391852 0.000000 0.000000 0.000000 21.578830 -5.564716 57.952263 -16.044643 21.930015 -0.766189 -179.402995 -1.246016 45.616888 67.514304 -56.812668 -0.370320 -3.128895 -13.530266 1.701536 6.733987 8.145807 -0.181564 0.000000 0.000000 0.000000 10.352618 -12.083118 -2.790316 2.647042 3.580078 0.548389 0.000000 0.000000 0.000000 38.504035 -3.886991 -10.215505 -2.429658 -0.228647 0.083055 0.000000 0.000000 0.000000 13.569718 -14.236986 -4.050466 6.508180 3.697912 1.047416 0.000000 0.000000 0.000000 -54.884245 -1.423394 16.308930 20.193505 10.456366 -10.482341 0.000000 0.000000 0.000000 
-0.020312 0.978172 0.007025 -5.729273 12.150375 -108.299001 1.884441 -18.653782 1.172986 -9.219166 -12.770793 28.118049 -29.489353 22.007501 4.264730 0.000000 0.000000 0.000000 2.882964 -2.641513 -14.341361 2.262383 5.635000 35.268971 -13.327574 2.814654 26.815369 0.000000 0.000000 0.000000 -4.286570 19.579278 47.600281 -17.363901 -7.779853 -17.477782 130.795001 -11.764860 39.596585 -29.173995 -17.293891 -86.959170 0.000000 0.000000 0.000000 -52.638132 -25.191462 55.704608 -67.606250 -18.825375 -66.484682 -111.862894 -2.586377 11.803814 -53.217317 48.535019 73.651683 -4.971945 -45.396895 -40.762899 -15.912718 29.853281 -11.856747 0.000000 0.000000 0.000000 96.360670 26.768708 -53.617142 -15.685964 16.581638 -7.202212 0.000000 0.000000 0.000000 -1.508483 41.911990 -66.558481 -15.520600 -13.854015 2.242752 0.000000 0.000000 0.000000 -121.122210 78.116112 127.758645 -21.253383 -2.827659 -0.990059 0.000000 0.000000 0.000000 127.550340 37.159472 31.395937 -26.906957 -6.677318 -9.506963 0.000000 0.000000 0.000000 21.542716 5.851670 70.026422 -17.255076 21.577828 -1.016981 176.333790 -2.798252 117.993111 68.057276 -7.803623 6.707830 -3.843912 -13.740990 1.706689 6.422045 8.601563 -0.183196 0.000000 0.000000 0.000000 9.358170 -12.134098 -2.410927 2.869702 4.106061 0.609327 0.000000 0.000000 0.000000 37.785580 -4.074466 -9.791704 -2.205562 0.026198 0.249939 0.000000 0.000000 0.000000 12.547681 -14.215719 -3.690156 6.855966 4.134247 1.149022 0.000000 0.000000 0.000000 -54.694591 -2.478947 15.242151 19.729629 10.318575 -10.102923 0.000000 0.000000 0.000000 
-0.042645 0.970707 0.014477 -6.238256 11.836194 -108.564456 2.117291 -21.361252 1.197718 -8.345857 -11.020722 27.400882 -25.642229 19.993900 5.107555 0.000000 0.000000 0.000000 3.187946 -3.339382 -15.191481 2.732642 6.673993 33.818435 -12.563883 2.036106 27.295869 0.000000 0.000000 0.000000 -3.906045 21.348467 47.520176 -16.351651 -6.686998 -17.546550 129.347975 -7.351601 36.423689 -26.728241 -23.401199 -83.390455 0.000000 0.000000 0.000000 -55.806575 -21.927804 53.527923 -66.313013 -13.273515 -67.371488 -114.071099 -6.266428 18.420512 -64.173521 46.386080 66.832142 1.174741 -41.638673 -37.514474 -26.004806 23.608724 -14.968241 0.000000 0.000000 0.000000 100.331931 26.979239 -56.932397 -12.616993 16.090419 -5.483888 0.000000 0.000000 0.000000 12.409190 43.684242 -67.718245 -18.056554 -10.872937 -1.594142 0.000000 0.000000 0.000000 -122.391183 77.596031 125.890473 -21.417326 -2.389283 -1.536345 0.000000 0.000000 0.000000 130.760499 38.362959 32.498725 -27.162313 -6.585789 -9.506287 0.000000 0.000000 0.000000 22.894756 15.633776 78.174704 -18.548887 21.960432 -1.415443 173.569294 0.432426 -173.119380 52.367474 34.518003 -0.758668 -4.024277 -14.681530 1.671501 6.185438 8.535913 -0.204933 0.000000 0.000000 0.000000 9.113372 -13.134610 -2.400100 2.829863 4.291256 0.617852 0.000000 0.000000 0.000000 37.500749 -4.547500 -9.830575 -2.193109 0.079803 0.289256 0.000000 0.000000 0.000000 12.227605 -14.984643 -3.675777 6.877812 4.317816 1.181095 0.000000 0.000000 0.000000 -55.116032 -3.856172 13.390574 19.667612 9.817255 -9.625483 0.000000 0.000000 0.000000 
-0.066908 0.964467 0.021044 -6.476022 11.193573 -108.780175 2.585244 -24.410753 -0.788366 -7.239336 -6.419994 28.895040 -13.487420 16.240520 11.280275 0.000000 0.000000 0.000000 3.435788 -3.856278 -15.977129 2.823495 6.663546 33.284158 -11.744197 1.363644 26.780780 0.000000 0.000000 0.000000 -3.520883 22.812870 47.354562 -15.539386 -5.713851 -17.566452 128.369876 -3.458020 33.901475 -24.528380 -28.421167 -80.094608 0.000000 0.000000 0.000000 -58.375550 -19.843899 52.250874 -65.675540 -9.618799 -68.655824 -116.137928 -9.590561 25.025307 -73.950320 41.827333 61.524097 5.823224 -37.191134 -32.630187 -34.313222 14.038498 -15.927402 0.000000 0.000000 0.000000 103.671972 28.633591 -57.075516 -11.204892 15.029639 -4.365228 0.000000 0.000000 0.000000 24.450870 45.945334 -68.553934 -18.830937 -7.546126 -4.600887 0.000000 0.000000 0.000000 -126.538704 76.854424 119.809339 -20.978995 -1.766385 -1.898581 0.000000 0.000000 0.000000 135.193497 39.687983 34.938915 -27.468214 -6.431200 -9.425649 0.000000 0.000000 0.000000 24.998162 23.779246 84.096395 -19.663890 22.744321 -1.800566 174.411617 3.229702 -131.358270 28.858986 44.709671 -19.841234 -4.083398 -15.440178 1.747508 6.057770 8.474977 -0.211545 0.000000 0.000000 0.000000 9.052276 -13.900498 -2.485838 2.803379 4.377467 0.630922 0.000000 0.000000 0.000000 37.355267 -4.784577 -9.856236 -2.196041 0.112850 0.312452 0.000000 0.000000 0.000000 12.109782 -15.522716 -3.740947 6.880814 4.407798 1.209844 0.000000 0.000000 0.000000 -55.308320 -4.244896 12.478012 19.627355 9.384724 -9.370825 0.000000 0.000000 0.000000 
